# xmcd
#
# Track frame offsets: 
#        150
#        18030
#        36625
#        53850
#        77275
#        97170
#        122955
#        142302
#        159715
#        175795
#        193062
#
# Disc length: 2858 seconds
#
# Revision: 0
# Processed by: cddbd v1.4PL0 Copyright (c) Steve Scherf et al.
# Submitted via: ExactAudioCopy v0.90b4
#
DISCID=990b280b
DTITLE=Elkie Brooks - The Pearls Concert
DYEAR=1997
DGENRE=Pop
TTITLE0=Butterfly Blue
TTITLE1=Love Potion No.9
TTITLE2=Do Right Woman
TTITLE3=I Think I Am Going Back
TTITLE4=I Just Can't Go On
TTITLE5=Fool If You Think It's Over
TTITLE6=Our Love
TTITLE7=Gasoline Alley
TTITLE8=Too Much Between Us Baby
TTITLE9=To Hold The Dream
TTITLE10=Seagull
EXTD=
EXTT0=
EXTT1=
EXTT2=
EXTT3=
EXTT4=
EXTT5=
EXTT6=
EXTT7=
EXTT8=
EXTT9=
EXTT10=
PLAYORDER=
